<svg width="50" height="50" viewBox="0 0 50 50" fill="none" xmlns="http://www.w3.org/2000/svg">
<path d="M4.0855 34.5833C2.74652 31.6659 2 28.4202 2 25C2 12.2975 12.2975 2 25 2C37.7025 2 48 12.2975 48 25C48 37.7025 37.7025 48 25 48C21.8061 48 18.7643 47.349 16 46.1724" stroke="white" stroke-width="3" stroke-linecap="round"/>
<path d="M14 31.5L2 43.5" stroke="white" stroke-width="3" stroke-linecap="round"/>
<path d="M18 36.5L11 43.5" stroke="white" stroke-width="3" stroke-linecap="round"/>
<path fill-rule="evenodd" clip-rule="evenodd" d="M27.9987 38.2034L36.9999 13L11.0081 21.9627C10.083 22.2817 10.1025 23.6485 11.0277 23.9674C14.1789 25.0536 18.9362 26.9363 20.9999 29C23.0486 31.0487 24.9189 35.3472 26.0087 38.204C26.3501 39.099 27.6765 39.1055 27.9987 38.2034ZM28.4999 25C30.4329 25 31.9999 23.433 31.9999 21.5C31.9999 19.567 30.4329 18 28.4999 18C26.5669 18 24.9999 19.567 24.9999 21.5C24.9999 23.433 26.5669 25 28.4999 25Z" fill="white"/>
</svg>
